<?xml version="1.0" encoding="UTF-8" standalone="no"?>
<!-- Created with Inkscape (http://www.inkscape.org/) -->

<svg
   version="1.1"
   id="svg1"
   width="1254"
   height="1254"
   viewBox="0 0 1254 1254"
   sodipodi:docname="logo.svg"
   inkscape:version="1.4.2 (f4327f4, 2025-05-13)"
   xmlns:inkscape="http://www.inkscape.org/namespaces/inkscape"
   xmlns:sodipodi="http://sodipodi.sourceforge.net/DTD/sodipodi-0.dtd"
   xmlns="http://www.w3.org/2000/svg"
   xmlns:svg="http://www.w3.org/2000/svg">
  <defs
     id="defs1" />
  <sodipodi:namedview
     id="namedview1"
     pagecolor="#ffffff"
     bordercolor="#000000"
     borderopacity="0.25"
     inkscape:showpageshadow="2"
     inkscape:pageopacity="0.0"
     inkscape:pagecheckerboard="0"
     inkscape:deskcolor="#d1d1d1"
     inkscape:zoom="0.64992026"
     inkscape:cx="627"
     inkscape:cy="627"
     inkscape:window-width="1920"
     inkscape:window-height="1017"
     inkscape:window-x="-8"
     inkscape:window-y="-8"
     inkscape:window-maximized="1"
     inkscape:current-layer="g1" />
  <g
     inkscape:groupmode="layer"
     inkscape:label="Image"
     id="g1">
    <path
       style="fill:#000000"
       d="M 0,627 V 0 h 627 627 v 627 627 H 627 0 Z m 436.49507,517.0019 2.62528,-0.9982 -0.58228,-0.9421 -0.58228,-0.9421 -2.90702,1.0133 -2.90701,1.0134 -2.32088,-1.2228 -2.32088,-1.2228 -0.73469,-1.1003 -0.73468,-1.1003 -0.0153,-3.75 L 426,1131 l 2,-2 2,-2 2.25,0.015 2.25,0.015 1.45225,0.9187 1.45226,0.9187 0.8463,-0.523 0.84631,-0.5231 -1.17101,-1.4109 -1.171,-1.411 h -3.95448 -3.95448 l -2.92307,2.9231 -2.92308,2.9231 v 4.1538 4.1538 l 2.92308,2.9231 2.92307,2.9231 h 2.51183 2.51182 z m 32.40512,-0.7519 2.12177,-1.75 0.23902,-7.9081 0.23902,-7.908 -1.25,-0.4253 -1.25,-0.4253 v 7.4284 7.4283 l -2.03028,1.8374 -2.03028,1.8374 -2.71972,-0.9521 -2.71972,-0.9521 -0.5,-7.9014 -0.5,-7.9014 -1.25,-0.4122 -1.25,-0.4123 v 8.0108 8.0107 l 2.63486,2.0726 2.63486,2.0726 h 2.75435 2.75436 z m 30.16555,0.7148 1.93426,-1.0352 v -3.4778 -3.4778 l -4.54084,-2.2061 -4.54084,-2.2061 0.29084,-2.0309 0.29084,-2.0309 4.25,0.1893 4.25,0.1894 v -0.8324 -0.8323 l -1.58179,-0.607 -1.58178,-0.607 h -2.84679 -2.84678 l -1.57143,1.5714 -1.57143,1.5715 v 1.7735 1.7736 l 1.75183,1.5854 1.75183,1.5854 2.7738,1.0546 2.77379,1.0546 0.61112,1.5925 0.61112,1.5926 -1.64034,1.6403 -1.64034,1.6404 -3.18046,-1.2005 -3.18046,-1.2005 -0.56437,0.5644 -0.56438,0.5643 1.93956,1.4183 1.93956,1.4182 h 2.37461 2.37461 z m 26.56149,-8.0506 0.12724,-8.4142 3.14175,-0.3148 3.14175,-0.3147 -0.578,-0.9353 -0.578,-0.9352 H 523.94098 517 v 0.9336 0.9336 l 2.75,0.3164 2.75,0.3164 0.28995,8.82 0.28996,8.82 1.21004,-0.4058 1.21005,-0.4059 z m 35.33914,7.6032 2.86705,-1.4826 1.16084,-3.5174 1.16084,-3.5174 -1.15408,-3.4969 -1.15408,-3.4969 -2.14597,-1.5031 L 559.55499,1125 H 556 552.44501 l -2.1932,1.5362 -2.19321,1.5362 -1.12709,3.7619 -1.12709,3.7619 1.55336,3.7177 1.55336,3.7177 2.29443,0.9208 2.29443,0.9208 2.29966,0.063 2.29966,0.063 z m -9.51182,-2.9719 L 549,1138.0909 V 1135 v -3.0909 l 2.45455,-2.4546 2.45454,-2.4545 H 556 h 2.09091 l 2.45454,2.4545 2.45455,2.4546 v 3.0909 3.0909 l -2.45455,2.4546 -2.45454,2.4545 H 556 553.90909 Z M 585.5,1137.6644 v -6.6659 l 0.5,0 0.5,0 2.8656,4.5358 2.86561,4.5358 2.37435,-3.2183 2.37434,-3.2182 0.76005,-2.0694 0.76005,-2.0693 0.5,7.4213 0.5,7.4214 1.25,0.412 1.25,0.412 V 1135.0833 1125 h -1.49145 -1.49145 l -3.10401,5.5 -3.10401,5.5 h -0.39599 -0.39599 l -3.10401,-5.5 -3.10401,-5.5 H 584.40454 583 v 10.0833 10.0834 l 1.25,-0.4182 1.25,-0.4182 z M 646,1136 v -9 h 3 3 v -1 -1 h -7.5 -7.5 v 1 1 h 3 3 v 9 9 h 1.5 1.5 z m 23,6.5 0.9505,-2.5 h 4.5057 4.5057 l 0.62746,2.5 0.62746,2.5 h 1.49858 1.49858 l -0.61208,-1.75 -0.61208,-1.75 -3.24491,-8.2648 -3.24491,-8.2647 -1.33352,0.2647 -1.33352,0.2648 -3.41648,8.8472 -3.41648,8.8473 v 0.9027 0.9028 h 1.02475 1.02475 z m 2.39728,-6.0929 0.61125,-1.5929 0.60414,-2.4071 0.60415,-2.4071 h 0.79376 0.79377 l 1.09782,3.1492 1.09783,3.1492 v 0.8508 0.8508 h -3.10699 -3.10699 z M 705,1136 v -9 h 3 3 v -1 -1 h -6.94098 -6.94099 l -0.61803,1 -0.61803,1 H 698.94098 702 v 8.3333 8.3334 l 0.66667,0.6666 0.66666,0.6667 H 704.16667 705 Z m 30,0 v -9 h 3 3 v -1 -1 h -7.5 -7.5 v 1 1 h 3 3 v 9 9 h 1.5 1.5 z m 34.44025,8.0227 2.57044,-0.9773 1.62682,-3.4114 1.62681,-3.4115 -0.66934,-3.5679 -0.66935,-3.5679 -2.59767,-2.0434 -2.59768,-2.0433 h -2.9148 -2.9148 l -2.82916,1.463 -2.82916,1.463 -0.62118,1.6188 -0.62118,1.6188 v 3.9951 3.9951 l 2.92308,2.9231 2.92307,2.9231 h 2.51183 2.51182 z m -7.52691,-2.3045 -1.58665,-1.2182 -1.22992,-2.3087 -1.22992,-2.3086 0.64576,-2.9401 0.64575,-2.9401 2.14333,-1.5013 2.14332,-1.5012 h 2.2775 H 768 l 2,2 2,2 v 3.9274 3.9274 l -2.63486,2.0726 -2.63486,2.0726 -1.61514,-0.032 -1.61514,-0.032 z m 45.83666,-0.2402 2.25,-2.5895 v -4.0212 -4.0211 l -2.92308,-2.9231 L 804.15385,1125 H 800.5 796.84615 l -2.92307,2.9231 -2.92308,2.9231 0.0147,3.3269 0.0147,3.3269 1.25497,2.4803 1.25497,2.4803 2.48029,1.3043 2.48029,1.3043 3.5,-0.5008 3.5,-0.5009 z M 796.63486,1140.9274 794,1138.8548 V 1134.9274 1131 l 2,-2 2,-2 h 2.06574 2.06574 l 1.82908,0.9789 1.82907,0.9789 1.05317,3.0211 1.05316,3.0211 -0.99775,2.8622 -0.99776,2.8621 -2.49728,1.1379 -2.49728,1.1378 h -0.81808 -0.81809 z m 40.14263,2.5159 2.22251,-1.5567 -0.0153,-2.1933 -0.0153,-2.1933 -0.76973,-1.2112 -0.76973,-1.2112 -3.64657,-1.5237 -3.64658,-1.5236 -0.65447,-1.059 -0.65447,-1.0589 1.2897,-1.554 1.2897,-1.554 3.29639,0.5349 3.29639,0.535 v -0.9181 -0.9181 l -2.5,-0.6275 -2.5,-0.6274 -2.54282,0.6382 -2.54282,0.6382 -0.56503,1.4724 -0.56502,1.4725 0.58091,2.3145 0.58092,2.3146 4.273,1.9332 4.273,1.9332 0.31426,1.6825 0.31426,1.6826 -2.18682,1.1703 -2.18683,1.1704 -2.52563,-1.1508 -2.52563,-1.1507 -1.01739,1.0173 -1.01739,1.0174 2.41951,0.9671 2.41952,0.9671 2.02749,0.063 2.0275,0.063 z M 388.06574,1138.9648 390,1137.9296 v -2.3423 -2.3424 l -1.45196,-1.205 -1.45196,-1.2051 -1.77738,0.3423 -1.77737,0.3423 -0.9427,2.6806 -0.94269,2.6805 1.29447,1.5598 1.29448,1.5597 h 0.9433 0.94329 z M 877.8,1138.8 l 1.2,-1.2 v -2.1 -2.1 l -1.2,-1.2 -1.2,-1.2 h -1.82144 -1.82144 l -1.13722,2.4959 -1.13723,2.496 1.81365,2.004 1.81366,2.0041 h 1.14501 1.14501 z m -545.59044,-55.0359 0.29044,-8.2358 3.35425,5.2358 3.35424,5.2359 0.64576,-10e-4 0.64575,-10e-4 3,-5.249 3,-5.249 0.29044,8.25 0.29044,8.25 H 348.54044 350 v -10.5 -10.5 h -1.47695 -1.47694 l -1.6853,2.75 -1.6853,2.75 -2.05622,3.1758 -2.05622,3.1757 -3.33944,-5.9257 -3.33945,-5.9258 h -1.97343 -1.97342 l 0.13832,10.5 0.13832,10.5 h 1.35257 1.35258 z M 373.78383,1081.25 373.5,1070.5 h -1 -1 l -0.28383,10.75 -0.28383,10.75 h 1.56766 1.56766 z m 33.67648,9.2018 3.26258,-1.5482 1.13855,-2.4988 1.13856,-2.4989 v -3.0187 -3.0187 l -1.16334,-2.1842 -1.16335,-2.1843 -1.58665,-1.2182 -1.58666,-1.2182 -5.75,-0.032 L 396,1071 v 10.5 10.5 h 4.09887 4.09887 z M 398,1081 v -8 h 3.82569 3.82568 l 2.17432,2.3145 2.17431,2.3144 v 3.6856 3.6855 l -2,2 -2,2 h -4 -4 z m 42,1.5 v -9.5 h 2.94098 2.94099 l 0.61803,-1 0.61803,-1 H 438.55902 430 v 1 1 h 3.5 3.5 v 9.5 9.5 h 1.5 1.5 z m 41.717,6.0426 2.283,-2.6541 v -4.3675 -4.3675 l -2.52703,-3.0033 -2.52703,-3.0032 -2.9261,-0.6426 -2.92609,-0.6427 -3.41902,1.6224 -3.41903,1.6224 -1.73681,3.8516 -1.73681,3.8516 1.18135,3.5795 1.18135,3.5795 2.67761,2.1132 2.67761,2.1131 4.467,-0.4991 4.46701,-0.4991 z M 469.02517,1087.179 466,1084.1538 v -2.1265 -2.1266 l 1.46301,-2.8292 1.46302,-2.8291 1.61877,-0.6212 1.61877,-0.6212 H 474.58179 477 l 2,2 2,2 v 4.345 4.345 l -1.75,1.5771 -1.75,1.5771 -2.72483,0.68 -2.72483,0.68 z m 43.45185,-3.0087 1.97702,-7.1703 h 0.69215 0.69215 l 2.2265,7.5 2.22651,7.5 h 1.15172 1.15171 l 3.09742,-10.5531 3.09741,-10.553 -1.60155,0.3084 -1.60156,0.3084 -1.79535,6.9947 -1.79536,6.9946 -0.36247,1 -0.36246,1 -2.2652,-7.5 -2.2652,-7.5 -0.91187,-0.9916 -0.91187,-0.9917 -0.76431,1.2367 -0.7643,1.2367 -1.83276,7.0662 -1.83275,7.0663 -0.73353,-0.8113 -0.73354,-0.8113 -1.73548,-7.25 -1.73549,-7.25 H 503.39228 502 v 0.6984 0.6984 l 2.55012,8.5516 2.55012,8.5516 0.4504,1.3332 0.45041,1.3331 1.24948,-0.4129 1.24947,-0.4129 z m 38.73254,-0.3873 0.29044,-8.217 6,8.2058 6,8.2058 1.25,0.011 1.25,0.011 v -10.5 -10.5 h -1.45956 -1.45956 l -0.29044,7.9541 -0.29044,7.9542 -5.5,-7.9184 -5.5,-7.9185 -1.60464,-0.036 -1.60464,-0.036 0.0556,10.5 0.0556,10.5 h 1.25856 1.25857 z M 614,1083.7633 v -8.2366 l 3.58229,5.3194 3.58229,5.3194 2.35871,-3.3328 2.35871,-3.3327 1.51446,-2 1.51446,-2 0.0445,8.25 L 629,1092 h 1 1 v -10.5 -10.5 h -1.42661 -1.42661 l -3.14678,5.5 -3.14678,5.5 h -0.72253 -0.72252 l -2.99293,-5.2438 -2.99293,-5.2438 -1.71115,-0.3295 L 611,1070.8534 V 1081.4267 1092 h 1.5 1.5 z m 41.14167,5.8251 1.0988,-2.4116 5.01891,-0.3385 5.0189,-0.3385 0.95869,2.7501 0.95868,2.7501 h 1.48551 1.48551 l -0.33334,-0.7693 -0.33333,-0.7692 -3.91879,-9.7308 -3.91878,-9.7307 -1.58122,0.019 -1.58121,0.019 -3.75,9.8099 -3.75,9.8099 v 0.671 0.6709 h 1.02144 1.02144 z m 5.10833,-5.3634 -2.25,-0.3641 v -0.5644 -0.5645 l 1.15829,-3.866 1.15829,-3.866 h 0.64082 0.64082 l 1.4459,3.75 1.4459,3.75 0.29726,0.6268 0.29725,0.6268 -1.29227,0.4178 -1.29226,0.4177 z m 33.75,-0.6704 0.5,-7.7876 5.80254,8.1165 5.80255,8.1165 h 0.83082 0.83083 l 0.51318,-1.9624 0.51318,-1.9624 -0.0208,-8.5376 -0.0208,-8.5376 h -1.33527 -1.33528 l -0.29044,8.1432 -0.29044,8.1432 -5.5402,-7.8873 -5.5402,-7.8872 -1.7098,-0.3293 -1.7098,-0.3292 v 10.6566 10.6567 l 1.25,-0.4123 1.25,-0.4122 z M 733,1087 v -5 h 6 6 v 5 5 h 1 1 v -10.5 -10.5 h -1 -1 v 4.5 4.5 h -6 -6 v -4.5 -4.5 h -1.30902 -1.30902 l -0.17634,5.25 -0.17633,5.25 0.55731,5.25 0.55731,5.25 H 732.07196 733 Z m 37,4 v -1 l 1.79589,-1.7959 1.79589,-1.7959 4.27655,0.4079 4.27656,0.4078 1.08807,2.388 1.08807,2.3881 h 1.35291 1.3529 l -1.58519,-3.75 -1.58519,-3.75 -2.6441,-6.75 -2.64411,-6.75 h -1.60899 -1.609 l -3.67513,9.9236 -3.67513,9.9235 v 0.5765 0.5764 h 1 1 z m 3.50744,-6.988 -0.37116,-0.6005 1.94963,-4.3547 1.94963,-4.3546 0.31961,0.3989 0.31961,0.3989 1.61306,4.1464 1.61306,4.1464 -3.51114,0.4099 -3.51115,0.4099 z M 812,1082.5 v -9.5 h 2.94098 2.94099 l 0.61803,-1 0.61803,-1 H 810.55902 802 v 1 1 h 3.5 3.5 v 9.5 9.5 h 1.5 1.5 z m 34,0 v -9.5 h 3.5 3.5 v -1 -1 h -8 -8 v 1 1 h 3.5 3.5 v 9.5 9.5 h 1 1 z m 26,7 0.9505,-2.5 h 5.04619 5.04619 l 1.13907,2.5 1.13908,2.5 h 1.35291 1.3529 l -1.51615,-3.6287 -1.51616,-3.6286 -2.68384,-6.8714 -2.68385,-6.8713 -1.56342,0.013 -1.56342,0.013 -3.75,9.7467 -3.75,9.7466 v 0.7409 0.7408 h 1.02475 1.02475 z m 5.81874,-5.3063 -3.68127,-0.3062 1.64697,-4.4438 1.64696,-4.4437 h 0.64844 0.64844 l 1.74177,4.5608 1.74177,4.5607 -0.35591,0.1893 L 881.5,1084.5 Z M 910,1084 v -8 h 0.96482 0.96481 l 1.1885,2.25 1.1885,2.25 4.40513,5.75 4.40513,5.75 H 924.05845 925 v -10.5 -10.5 h -1 -1 v 8 8 h -0.89301 -0.89301 l -0.53349,-1.3903 -0.5335,-1.3902 -4.75493,-6.6098 L 910.63712,1071 H 909.31856 908 v 10.5 10.5 h 1 1 z m -277.05092,-52.5 0.0434,-4 -1.98156,-3.25 -1.98156,-3.25 h -0.46268 -0.46268 l 1.08314,3.1071 1.08314,3.1071 -1.20687,5.3929 -1.20688,5.3929 h -0.75981 -0.75981 l -1.06827,-4.6684 -1.06827,-4.6683 1.25359,-4.8328 1.2536,-4.8327 -1.30117,1.0799 -1.30118,1.0798 -1.68496,4.4121 -1.68497,4.412 0.58178,3.5851 0.58178,3.585 2.69515,4.599 2.69514,4.5989 2.80824,-5.4248 2.80823,-5.4248 z m -14.68121,-11.0361 3.73213,-2.536 v -1.0709 -1.071 l -1.75,0.7484 -1.75,0.7485 -2.5,0.415 -2.5,0.4151 -4,-1.4126 -4,-1.4125 3.5,-2.1842 3.5,-2.1841 2.5,0.4467 2.5,0.4467 2.5,0.7505 2.5,0.7505 -1.9128,-2.1656 -1.9128,-2.1657 -3.78541,-1.1341 -3.78541,-1.1341 -3.12925,1.2961 -3.12926,1.2962 -1.53754,2.3466 -1.53755,2.3466 H 600.38499 599 v 1 1 h 1.03333 1.03334 l 3.5,3.5 3.5,3.5 h 3.23453 3.23453 z m 27.283,1.6649 3.03767,-0.8712 3.1005,-3.1005 3.1005,-3.1005 -3.5634,-3.7783 -3.5634,-3.7783 h -4.75804 -4.75804 l -2.76028,2.0608 -2.76028,2.0609 -0.42408,1.2722 -0.42408,1.2723 3.06137,-1.5831 3.06137,-1.5831 h 1.85853 1.85853 l 1.94113,1.4682 1.94113,1.4682 1.75,0.032 1.75,0.032 v 1 1 h -1.54966 -1.54966 l -2.93723,1.5189 -2.93722,1.5189 -3.63524,-1.5189 -3.63524,-1.5189 h -0.55219 -0.55219 l 2.42432,2.6094 2.42431,2.6093 2,0.8273 2,0.8272 1.0066,0.063 1.0066,0.063 z M 589.4433,1018.7775 591,1016.555 v -1.9488 -1.9487 l -1.65499,-1.8288 -1.65499,-1.8287 h -2.03056 -2.03056 l -2.27267,2.1351 -2.27267,2.135 -76.13915,0.7957 -76.13916,0.7956 -0.41191,0.4119 -0.41191,0.4119 76.49983,0.5774 76.49983,0.5774 2.64431,2.08 2.64432,2.08 h 1.80843 1.80844 z m 82.87739,0.1849 2.59041,-2.0376 80.54812,-0.6254 80.54811,-0.6254 -0.37041,-0.3704 -0.3704,-0.3704 -80.22333,-0.8769 -80.22333,-0.8769 -2.22438,-2.0897 L 670.3711,1009 H 668.68555 667 l -2,2 -2,2 v 2 2 l 2,2 2,2 h 1.36514 1.36514 z m -47.74331,-14.4314 -1.53977,-3.6852 1.37916,-3.30084 1.37916,-3.30081 0.96245,-0.59482 0.96245,-0.59483 1.68136,3.72861 1.68137,3.72859 -1.49742,4.2442 -1.49742,4.2441 h 0.47034 0.47034 l 1.98156,-3.25 1.98156,-3.25 0.004,-2.3647 0.004,-2.36464 -2.64296,-4.85599 -2.64296,-4.85599 -0.66257,0.40949 -0.66257,0.40949 -2.77505,5.48479 -2.77505,5.48479 2.09271,4.73096 2.09271,4.7309 0.54645,-0.5465 0.54645,-0.5464 z m -285.85041,-46.93989 -1.77304,-1.34528 0.27304,-18.37292 L 337.5,919.5 l 4.5,0.30925 4.5,0.30924 2.25,2.49652 2.25,2.49652 V 921.05576 917 h -18 -18 l 0.0317,4.25 0.0317,4.25 2.05173,-2.75 2.05172,-2.75 h 5.4166 H 330 v 17.67126 17.67126 l -1.65499,1.82874 -1.65499,1.82874 6.90499,-0.0318 6.90499,-0.0318 z m 49.92972,-0.41797 -1.65328,-1.82686 1.5923,-4.67314 L 390.188,946 h 8.77014 8.77014 l 1.63586,4.28343 L 411,954.56687 V 955.78343 957 h -1 -1 v 1 1 h 6 6 v -0.89301 -0.89301 l -1.3803,-0.52967 -1.38029,-0.52967 L 410.4672,936.57732 402.69498,917 H 400.34749 398 v 1.36128 1.36128 l -7.08672,17.38872 -7.08672,17.38872 -2.0876,2.25 -2.08759,2.25 h 5.3293 5.32931 z m 3.33261,-13.92314 -0.0107,-0.75 3.26071,-8.74038 3.2607,-8.74039 0.5343,-0.01 0.5343,-0.01 1.60323,4.25 1.60324,4.25 2.09787,5.25 2.09788,5.25 H 399.48541 392 Z M 473.65499,957.17126 472,955.34252 V 937.17126 919 l 2.25,0.006 2.25,0.006 3.69249,1.02555 3.69249,1.02555 0.62951,1.9834 0.6295,1.98339 0.73429,-0.45381 0.73429,-0.45382 -0.41569,-3.56071 L 485.78119,917 H 468.39059 451 v 3.67431 3.67432 l 2.25,-2.08075 2.25,-2.08076 5,-0.34356 5,-0.34356 v 18.20632 18.20632 l -2,1.51187 -2,1.51188 6.90499,0.0318 6.90499,0.0318 z M 544,958.10699 v -0.89301 l -1.52265,-0.5843 -1.52264,-0.58429 0.27264,-18.2727 L 541.5,919.5 l 1.75,0.125 1.75,0.125 3.04775,0.125 3.04775,0.125 2.45225,2.64602 L 556,925.29205 V 921.14602 917 h -18 -18 l 0.005,4.25 0.005,4.25 2.24504,-2.70014 2.24503,-2.70015 5,-0.26721 5,-0.26721 0.27265,18.24005 0.27264,18.24005 -1.52264,0.58429 L 532,957.21398 V 958.10699 959 h 6 6 z m 74.15655,-0.13377 3.65654,-1.01562 3.49374,-3.59698 3.49373,-3.59697 1.71582,-5.45504 1.71582,-5.45504 -0.64259,-4.01855 -0.64259,-4.01855 -1.96428,-3.8503 -1.96428,-3.85031 -3.25923,-2.41982 L 620.5,918.27621 617.10078,917.1381 613.70155,916 h -3.67146 -3.67146 l -5.42445,2.75 -5.42445,2.75 -2.96075,4.85022 -2.96074,4.85022 0.0224,6.64978 0.0225,6.64978 1.78016,3.3874 1.78015,3.38739 2.65327,2.49389 2.65327,2.49389 3,1.32957 3,1.32958 5,0.0336 5,0.0336 z m -13.39553,-2.9878 -3.73898,-2.02189 -2.22818,-4.23177 -2.22818,-4.23176 -0.0328,-7.5 -0.0328,-7.5 1.5,-2.96267 1.5,-2.96267 3.39788,-2.28733 L 606.29577,919 H 610 h 3.70423 l 3.3234,2.25 3.3234,2.25 2.32449,4.40728 2.32448,4.40729 v 5.82248 5.82248 l -1.61374,4.03313 -1.61374,4.03313 -2.74153,1.95215 -2.74154,1.95214 -3.89472,0.53862 -3.89473,0.53861 z m 95.02211,0.31758 3.71687,-2.99313 2.21996,-3.90493 2.21997,-3.90494 0.61675,-4.0711 0.61675,-4.0711 -1.08459,-4.02786 -1.08459,-4.02786 -2.29083,-3.40104 -2.29082,-3.40104 -4.4613,-2.48387 -4.4613,-2.48387 -6,0.0291 -6,0.029 -4.19207,2.19559 -4.19207,2.19558 -2.41982,3.25923 -2.41983,3.25923 -1.13811,3.39922 -1.1381,3.39923 v 4.39061 4.39062 l 1.90842,3.71016 1.90841,3.71016 3.11496,2.95949 3.11496,2.95948 2.72662,1.27118 2.72663,1.27118 7.28313,-0.3326 7.28313,-0.33261 z m -15.28313,0.97366 -2,-0.51018 -2.66417,-1.89022 -2.66417,-1.89022 -2.08583,-4.30874 -2.08583,-4.30875 0.006,-5.43427 0.006,-5.43428 0.9881,-3.55685 0.98809,-3.55684 2.9842,-2.85905 2.98421,-2.85904 5.40778,-0.44846 5.40777,-0.44846 4.02196,4.02196 4.02195,4.02195 1.22423,5.47043 1.22423,5.47042 -0.6605,4.40454 -0.66051,4.40455 -1.92359,3.16309 -1.92359,3.16309 -2.29774,1.45617 -2.29774,1.45618 -3,0.49158 -3,0.49159 z m 109.5,2.08358 v -0.63975 l -1.52736,-1.11684 -1.52736,-1.11683 0.27736,-15.44232 L 791.5,924.60217 804.38232,941.80109 817.26463,959 H 818.63232 820 v -19.17126 -19.17126 l 1.65499,-1.82874 L 823.30998,917 h -4.84612 -4.84612 l 1.65457,1.25 1.65457,1.25 0.28656,14.25162 0.28656,14.25162 -0.58882,-0.002 L 816.32236,948 804.91118,932.56002 793.5,917.12004 l -4.5,-0.0282 -4.5,-0.0282 1.75,1.32844 1.75,1.32844 v 18.17114 18.17114 l -1.5,0.5756 -1.5,0.57561 V 958.10699 959 h 4.5 4.5 z m 86,-0.25325 v -0.89301 l -1.5,-0.57561 -1.5,-0.5756 v -8.33585 -8.33585 l 5.59403,-8.94553 5.59402,-8.94554 2.65598,-2.24503 2.65597,-2.24504 -5.25847,-0.005 -5.25848,-0.005 1.15374,1.84742 1.15373,1.84743 -4.9814,8.09451 -4.9814,8.09451 -4.7553,-7.86616 -4.7553,-7.86615 0.65883,-2.07578 L 867.13478,917 h -6.12316 -6.12315 l 2.44457,2.25 2.44457,2.25 5.61119,9.33041 5.6112,9.3304 v 7.59085 7.59086 l -1.65499,1.82874 L 867.69002,959 H 873.84501 880 Z m 76.75,-1.08006 4.25,-1.92915 v -2.01875 -2.01876 l -3.75,2.56091 -3.75,2.5609 -5.54544,-0.39005 -5.54543,-0.39006 -2.63688,-1.95098 -2.63688,-1.95099 -2.24753,-3.95614 -2.24752,-3.95614 -0.052,-6.04386 -0.052,-6.04386 1.98185,-3.9868 1.98184,-3.98681 3.39788,-2.26319 L 943.29577,919 H 948.14788 953 l 4,4 4,4 v -3.92245 -3.92245 l -3.25,-1.04826 -3.25,-1.04826 -4.25489,-0.65788 -4.2549,-0.65788 -4.38883,1.22879 -4.38882,1.2288 -3.6353,2.99652 -3.6353,2.99652 -2.16849,4.15328 -2.16849,4.15327 0.0417,5.5 0.0417,5.5 2.05853,4 2.05853,4 2.35446,2.19616 2.35446,2.19616 3.49286,1.5147 3.49286,1.5147 5.5,0.0172 5.5,0.0172 z m -694.12054,-15.58417 1.67557,-2.55724 -2.00849,-2.69276 -2.0085,-2.69276 -1.62065,-0.31882 -1.62065,-0.31883 -2.31883,2.31883 -2.31882,2.31882 -11.20454,0.02 -11.20455,0.02 -23.75,0.32019 -23.75,0.32019 3,0.83422 3,0.83421 32.3574,0.39182 32.3574,0.39181 0.94229,1.68378 0.94229,1.68378 h 2.92726 2.92725 z m 743.64464,0.80724 1.584,-1.75 32.61,-0.34692 32.61,-0.34692 2.7109,-0.81713 2.711,-0.81712 -20.5,-0.19373 -20.5,-0.19372 -14.717,-0.35922 -14.717,-0.35921 -2.033,-2.03301 L 1004,933 h -1.5 -1.5 l -2,2 -2,2 v 1.56574 1.56574 l 1.03518,1.93426 1.03519,1.93426 h 2.80983 2.8098 z m -256.12866,-72.15932 7.46537,-1.90932 6.4446,-3.04739 6.44459,-3.04739 5.97577,-4.81752 5.97578,-4.81751 4.5882,-5.69527 4.58821,-5.69526 3.11815,-6.28051 3.11815,-6.28051 1.80721,-6 1.80721,-6 0.0107,-12.5 0.0107,-12.5 -2.33502,-7 -2.33503,-7 -3.09041,-5.81776 -3.09042,-5.81775 -6.39044,-6.90227 -6.39043,-6.90226 -7.44297,-4.639 -7.44297,-4.639 -7.74115,-2.60561 -7.74116,-2.60562 -14.5,-0.0203 -14.5,-0.0203 -7.9904,2.8086 -7.9904,2.8086 -5.82127,3.53623 -5.82126,3.53623 -5.92484,5.48536 -5.92485,5.48536 -4.4739,6.7297 -4.47389,6.7297 -3.16812,9.42508 -3.16811,9.42507 -0.0447,10.5 -0.0447,10.5 1.67836,6.5 1.67835,6.5 3.93197,8 3.93196,8 5.10134,5.70335 5.10133,5.70335 7.40793,4.95472 7.40792,4.95472 5.80367,2.22878 5.80367,2.22879 5.5,1.26067 5.5,1.26068 10.09004,0.10247 L 742.68007,872 Z m -28.69833,-3.44185 -4.05288,-1.32143 -5.94712,-3.17746 -5.94711,-3.17746 -3.68238,-3.48543 -3.68239,-3.48542 -3.56107,-4.34582 -3.56107,-4.34582 -3.41763,-7.405 -3.41763,-7.40499 -1.7852,-6.5 -1.7852,-6.5 -0.0439,-13.5 -0.0439,-13.5 1.74395,-6.5 1.74395,-6.5 3.66361,-7.30988 3.66362,-7.30988 5.71787,-5.93493 5.71787,-5.93493 7.86472,-3.75519 L 718.5,741.5 h 12.55186 12.55187 l 7.44813,3.71727 7.44814,3.71728 4.78713,4.14226 4.78712,4.14227 3.82444,5.64046 3.82444,5.64046 2.61036,5.16136 2.61037,5.16136 2.02202,7.29673 2.02203,7.29672 0.6306,7.5615 0.63061,7.56149 -1.17101,8.79958 -1.171,8.79959 -2.58693,7.18083 -2.58692,7.18084 -3.19482,5 -3.19482,5 -4.75151,4.75076 -4.75152,4.75075 -7.67029,3.72279 -7.6703,3.72279 -11,0.26158 -11,0.26158 z m -449.91682,-9.45733 3.0894,-12.30851 -0.70317,-0.43458 -0.70317,-0.43459 -0.5731,2.28341 -0.5731,2.28342 -4.03722,5.63791 -4.03722,5.63791 -5.74636,2.82177 L 252.5,865.5 l -22.69047,0.31704 -22.69047,0.31705 -2.05953,-1.10223 L 203,863.92963 v -56.81559 -56.81559 l 1.05285,-3.02022 1.05286,-3.02022 3.19714,-1.56527 3.19715,-1.56527 2,-0.81373 2,-0.81374 -9.75,-0.28621 -9.75,-0.28621 -9.75,0.28621 -9.75,0.28621 2,0.80485 2,0.80486 2.48554,1.22537 2.48553,1.22537 1.26275,2.46978 1.26275,2.46977 -0.24828,57.14558 -0.24829,57.14557 -1.99161,2.20015 -1.99162,2.20014 -3.00838,1.32829 -3.00839,1.32828 45.47044,-0.174 45.47044,-0.17401 z m 54.82564,10.82386 -4.14406,-1.84337 -1.15037,-3.48564 -1.15037,-3.48565 2.01381,-5.85035 2.01381,-5.85035 4.37413,-10.5 4.37413,-10.5 h 28.89354 28.89353 l 3.73592,9 3.73591,9 2.67798,8.08056 2.67798,8.08055 -0.66592,2.65324 -0.66592,2.65325 -3.73502,1.972 -3.73501,1.97201 h 18 l 18,0 -3.60033,-1.90291 -3.60033,-1.90291 -1.53671,-2.34531 -1.5367,-2.3453 L 408.71009,832.95759 397.19425,804.5 389.67273,786 l -7.52151,-18.5 -4.13846,-10 -4.13846,-10 -2.03498,-5.31945 -2.03498,-5.31944 -1.65217,0.66983 -1.65217,0.66983 -6.5,1.0903 -6.5,1.0903 -0.40266,0.29531 -0.40266,0.29531 2.62859,2.06765 2.62859,2.06766 1.07489,3.69635 1.07488,3.69635 -8.10127,19 -8.10127,19 -11.86712,28 -11.86711,28 -3.08536,6.84974 -3.08535,6.84974 -2.07756,2.91766 -2.07756,2.91766 -3.66952,1.93841 -3.66951,1.9384 14,-0.0264 14,-0.0264 z m 11.32921,-53.26536 3.49987,-8.25 9.51095,-22.5 9.51094,-22.5 0.9742,-2.5 0.9742,-2.5 1.50587,3.5 1.50587,3.5 6.5201,16 6.5201,16 5.39638,13.32806 L 389,822.15611 V 822.57806 823 h -27.40737 -27.40736 z m 218.70097,53.33787 -4.11388,-1.86821 -1.13612,-3.25905 L 550,859.70155 v -23.88576 -23.88576 l 10.16759,0.28499 10.16758,0.28498 15.30077,22 15.30076,22 5.34603,5.15614 5.34604,5.15614 5.36712,1.59386 5.36711,1.59386 9.5685,-0.0775 9.5685,-0.0775 -4.5,-1.67379 -4.5,-1.67379 -3.08896,-1.69111 -3.08897,-1.69111 -5.41103,-5.85959 -5.41104,-5.85959 -10.44249,-14.448 -10.44249,-14.44801 -4.80537,-6.13911 -4.80538,-6.13911 3.70578,-0.69521 3.70579,-0.69521 6.18537,-2.80458 6.18538,-2.80458 4.19932,-4.32712 4.19933,-4.32712 2.57809,-5.03398 2.57808,-5.03398 0.42624,-8 0.42623,-8 -2.11899,-5.61691 -2.119,-5.6169 -4.74733,-4.95138 -4.74733,-4.95137 -5.81753,-2.75213 -5.81754,-2.75214 -6.66308,-1.41222 -6.66308,-1.41222 -28.41667,-0.0174 -28.41666,-0.0174 0.71515,0.71515 0.71515,0.71515 3.20152,1.03485 3.20151,1.03485 1.74845,3.5 1.74844,3.5 v 55 l 0,55 -1.74844,3.5 -1.74845,3.5 -3.5,1.70197 -3.5,1.70197 18,0.0261 18,0.0261 z m -6.38712,-92.33787 -0.001,-33.25 13.25102,0.2149 13.25101,0.21491 4.321,1.06737 4.321,1.06737 3.7213,2.34916 3.72131,2.34915 3.10518,3.53661 3.10518,3.53661 2.10252,5.61947 2.10251,5.61948 v 7.28098 7.28099 l -1.48385,4.99666 -1.48385,4.99666 -3.53343,4.53532 -3.53344,4.53532 -4.73271,2.56294 -4.73272,2.56293 -5.93366,1.08659 L 571.63268,809 H 560.81634 550 Z m 377.4487,93 0.38493,-1.25 2.66934,-11.33102 2.66934,-11.33101 -0.4521,-0.4521 -0.4521,-0.4521 -2.70386,5.52651 -2.70387,5.52651 -3.16846,3.16846 -3.16846,3.16845 -4.51123,2.08815 L 911.5,865.5 l -22.40216,0.32022 -22.40216,0.32022 -2.34784,-0.58927 L 862,864.9619 l 0.0147,-58.23095 0.0147,-58.23095 1.24972,-2.46977 1.24973,-2.46978 2.48553,-1.19673 2.48554,-1.19673 2.5,-1.01582 2.5,-1.01581 -19.30902,-0.0677 -19.30901,-0.0677 0.61803,1 0.61803,1 h 1.88522 1.88522 l 2.80577,2.41286 2.80576,2.41287 0.28173,56.54331 0.28173,56.54331 -1.49409,3.57586 -1.49409,3.57587 -4.28764,1.946 -4.28764,1.946 45.78138,0.022 45.78139,0.022 z m 59.67522,-0.12391 -3.37709,-1.22176 -1.87291,-2.31295 L 980,862.77843 v -3.36912 -3.36911 l 3.9186,-9.7701 3.9186,-9.7701 2.07208,-4.62314 2.07207,-4.62313 3.13433,-0.62687 L 998.25,826 h 25.7856 25.7857 l 6.1399,15.64292 6.1398,15.64292 -0.3005,4.07443 -0.3005,4.07444 -3.3979,2.28265 -3.3979,2.28264 17.3979,-0.004 17.3979,-0.004 -3,-1.85308 -3,-1.85308 -1.8967,-2.13402 -1.8967,-2.13401 -7.7044,-19.25917 -7.7043,-19.25916 -14.7884,-36.5 -14.7883,-36.5 -2.6106,-6.36536 -2.6106,-6.36537 -0.5,0.008 -0.5,0.008 -7.75,1.30223 -7.75,1.30223 v 0.69801 0.69801 l 1.551,0.59518 1.551,0.59518 1.957,4.42399 1.9569,4.42399 -22.92327,53.6324 -22.92326,53.6324 -2.63836,3.45907 -2.63835,3.45906 -3.69633,1.95216 -3.69633,1.95216 14.5,-0.0319 14.5,-0.0319 z m 7.1567,-46.87609 0.49359,-1.25 12.0209,-28.5 12.0208,-28.5 1.491,-3.46102 1.4909,-3.46103 1.6789,3.96103 1.6788,3.96102 10.8421,27 10.8421,27 0.648,2.25 0.6481,2.25 h -27.1744 -27.17438 z M 867.5,679.0474 l 9,-8.1476 3.5,-3.7708 3.5,-3.77079 6,-6.8027 6,-6.8027 5.86132,-7.6264 5.86132,-7.62641 7.1943,-11 7.19429,-11 2.56483,-4.5 2.56482,-4.5 5.1489,-9.65372 5.1489,-9.65371 6.34607,-15.84629 6.34606,-15.84628 3.54885,-13 3.54885,-13 0.6048,-2.75 0.60479,-2.75 h -0.93959 -0.9396 l -0.71036,3.25 -0.71036,3.25 -4.99758,15 -4.99758,15 -4.92446,11.5 -4.92446,11.5 -6.75895,13 -6.75895,13 -6.43561,10.29543 -6.43561,10.29542 -9.10869,12.20458 -9.10869,12.20457 -9.6807,11 -9.68069,11 -9.21311,8.85364 -9.21311,8.85363 3,-2.00614 3,-2.00614 z m -475,3.57798 -8,-7.34316 -11.4337,-13.15996 -11.43369,-13.15995 -8.79609,-11.73116 -8.79609,-11.73115 -7.39822,-12.5 -7.39823,-12.5 -4.02813,-7.5 -4.02814,-7.5 -6.10683,-13.81018 -6.10684,-13.81018 -6.11366,-18.47985 -6.11366,-18.47984 -0.48605,0.48605 -0.48605,0.48605 1.23089,5.30397 1.23089,5.30398 3.49687,11 3.49686,11 3.96408,10.46756 3.96408,10.46755 7.87422,15.53245 7.87422,15.53244 6.22829,10 6.2283,10 8.13424,11.01042 8.13425,11.01043 6.42357,7.48957 6.42356,7.48958 8.51053,8.36952 8.51053,8.36952 5.80192,4.88048 5.80191,4.88048 0.69809,-0.0157 0.69808,-0.0157 z m 216.49875,-2.37538 -0.001,-0.75 -10.74875,-3.85183 -10.74875,-3.85182 -11,-5.47909 -11,-5.47908 -9.52484,-6.32334 -9.52484,-6.32333 -7.24954,-6.71196 -7.24954,-6.71196 -3.87029,-6.63379 -3.8703,-6.6338 -1.73166,-5.38841 -1.73167,-5.38841 0.5131,-5.65857 0.51311,-5.65857 4.00249,-7.96057 4.0025,-7.96057 1.61074,-5.42395 L 533,572.637 v -6.11916 -6.11915 l -1.97836,-8.94935 -1.97836,-8.94934 -0.0216,-3.75 L 529,535 l -0.75,0.0388 -0.75,0.0388 -4.97427,8.71119 -4.97428,8.71119 -3.88078,7.6242 -3.88078,7.6242 -0.52746,6.57101 -0.52745,6.571 1.20023,4.8048 1.20024,4.80479 3.54748,7.88102 3.54748,7.88102 1.30768,6.25005 1.30769,6.25005 2.62082,5.36893 2.62083,5.36893 -5.37644,-5.61691 -5.37644,-5.61692 -6.6304,-8.88308 -6.63039,-8.88309 -4.45083,-9 -4.45083,-9 -1.58605,-5.4315 L 490,571.637 l 0,-9.35005 v -9.35004 l 2.06691,-6.13553 2.06691,-6.13553 2.90664,-4.22466 2.90664,-4.22465 4.70599,-4.14238 4.70598,-4.14237 7.07047,-3.47981 7.07046,-3.47981 7.5,-1.58576 7.5,-1.58576 16,0.53109 16,0.53109 8.5,2.09174 8.5,2.09173 10.68145,3.53669 10.68144,3.53668 17.81856,8.86248 17.81855,8.86248 16,9.08771 16,9.0877 17.79909,9.01982 17.79908,9.01982 7.65009,3.03894 7.65009,3.03894 11.36841,2.93122 11.3684,2.93122 h 2.89291 2.89291 l 10.44412,15.75 10.44411,15.75 6.36558,6.11243 6.36558,6.11244 4.43171,2.26089 4.43171,2.26089 5.54811,2.04606 5.5481,2.04607 23.25,0.42417 23.25,0.42418 V 644.09356 643 h -4.2701 -4.2701 l -7.27187,-2.01514 -7.27188,-2.01514 -5.5204,-3.11552 -5.52041,-3.11553 -5.41467,-4.9487 -5.41468,-4.94871 -4.87883,-6.17063 -4.87884,-6.17063 -6.08769,-9.08074 -6.08769,-9.08075 -0.30642,-1.19283 -0.30642,-1.19284 7.5,-2.5515 7.5,-2.5515 5.5,-3.08333 5.5,-3.08332 6.60518,-4.8289 6.60519,-4.82889 7.42081,-7.76728 7.42081,-7.76727 4.66655,-7.49543 4.66655,-7.49542 3.12357,-7.35055 3.12357,-7.35056 -0.32413,-0.32412 -0.32412,-0.32413 -3.92062,7.4181 -3.92062,7.41809 -5.14278,6.75658 -5.14278,6.75659 -6.56602,5.5 -6.56602,5.5 -5.58378,3.35461 -5.58378,3.35462 -5.84029,2.35899 -5.84028,2.359 -5.93851,1.5535 -5.9385,1.5535 -9.22865,1.03543 -9.22864,1.03542 -10.27136,-1.09131 -10.27135,-1.09131 -8.36019,-2.05355 -8.36019,-2.05355 -10.36926,-3.89487 L 715.0411,565.0256 704.27055,560.13257 693.5,555.23953 669,543.51177 644.5,531.784 l -9,-4.00522 -9,-4.00522 -8.66229,-3.36747 -8.6623,-3.36746 -10.8377,-2.90318 -10.83771,-2.90317 -4,-0.65034 -4,-0.65034 -2.75,-0.54525 -2.75,-0.54526 0.0173,-141.67055 0.0173,-141.67054 0.99429,-9.5 0.9943,-9.5 1.11214,-3.5 1.11214,-3.5 2.43417,-3.25923 2.43416,-3.25923 3.71667,-1.8961 3.71666,-1.8961 6.20633,-1.22102 6.20633,-1.22103 -0.43691,-0.70694 -0.43691,-0.70694 -35.79402,-0.11493 -35.79401,-0.11494 -6.5,0.74229 -6.5,0.74229 3.5,0.77635 3.5,0.77635 4.84126,1.54027 4.84126,1.54027 3.34386,2.93595 3.34386,2.93594 1.48711,4.70338 1.48712,4.70337 0.62369,5.54166 0.62369,5.54166 0.40241,106.72023 0.4024,106.72023 0.46058,0.74524 0.46058,0.74523 -8.4511,9.49288 -8.4511,9.49287 -3.24939,5.5 -3.24938,5.5 -2.2005,5.81826 -2.20049,5.81827 -1.54848,10.68173 -1.54849,10.68174 -4.02764,8.5 -4.02764,8.5 -7.10778,11.89787 -7.10777,11.89787 -2.47104,6.10213 -2.47104,6.10213 -0.49557,9.37091 -0.49557,9.37091 -0.78151,-1.39646 -0.7815,-1.39647 -1.71349,-8.45642 -1.71349,-8.45642 0.57645,-10.51803 0.57645,-10.51802 4.99723,-20 4.99722,-20 1.06662,-6.02231 1.06661,-6.02231 0.93965,-15.97769 0.93965,-15.97769 2.05304,-7.892 2.05304,-7.892 1.2189,-1.608 1.2189,-1.608 7.18633,-7.00431 7.18634,-7.00431 1.46562,-5.49569 1.46562,-5.49569 1.48797,-7.72911 1.48796,-7.7291 -0.37413,-0.37414 -0.37414,-0.37414 -8.32514,8.10325 -8.32513,8.10324 -1.63123,3.15445 -1.63122,3.15445 -1.4119,8.84555 -1.4119,8.84555 -2.85861,11 -2.85861,11 -0.71946,-6.49518 -0.71946,-6.49518 0.88956,-15.00482 0.88956,-15.00482 2.07338,-7.89706 2.07338,-7.89707 2.52396,-4.51586 2.52397,-4.51586 4.22933,-5.30886 4.22934,-5.30886 3.8428,-0.67086 3.8428,-0.67087 2.77749,-2.3371 2.7775,-2.3371 1.21344,-2.92952 1.21345,-2.92952 -1.16591,-2.17852 -1.1659,-2.17851 -2.66784,0.66191 -2.66783,0.66192 -2.35444,2.17587 -2.35444,2.17587 -2.19084,4.51278 -2.19083,4.51279 -4.74638,5.82727 -4.74638,5.82727 0.66009,-2.84006 0.66009,-2.84005 2.35335,-9.0443 2.35334,-9.04429 1.54161,-4.36937 1.5416,-4.36937 1.1738,-1.41434 1.1738,-1.41435 4.67333,-2.36815 4.67332,-2.36815 1.71388,-3.61174 1.71388,-3.61174 -1.19683,-1.4421 L 524.75511,326 H 522.87756 521 v -3.92857 -3.92857 l -1.57143,-1.57143 -1.57143,-1.57143 -0.49431,0 -0.49431,0 -2.18426,1.16334 -2.18426,1.16335 -1,1.25229 -1,1.2523 -2,0.35666 -2,0.35667 0.12497,6.06308 0.12497,6.06309 1.7085,3.6004 1.70851,3.60041 -2.05838,7.8142 -2.05838,7.81421 -1.88453,6.5 -1.88454,6.5 -1.2623,-5.99489 -1.26229,-5.99489 0.59801,-6.40398 0.59801,-6.40397 -1.57277,-3.31438 -1.57277,-3.31437 -1.9515,-0.61938 -1.95149,-0.61938 -1.34323,1.11479 -1.34323,1.11478 -0.48016,3.21784 -0.48015,3.21783 0.86119,2.28831 0.86119,2.28831 2.49191,2.30942 2.4919,2.30942 1.51828,7.21765 1.51828,7.21764 -0.02,4.68463 -0.0201,4.68462 -2.45991,9.5 -2.45991,9.5 -0.0201,2.25 L 495,401 h -0.88871 -0.88871 l -0.64531,-3.43979 -0.64531,-3.43979 0.65851,-6.42738 0.6585,-6.42738 -1.75296,-5.38283 -1.75296,-5.38283 -1.27194,-1.5 -1.27194,-1.5 -1.57863,-3.82197 -1.57863,-3.82197 -0.9315,0.5757 -0.93149,0.5757 -0.71089,8.53406 -0.71088,8.53406 1.71921,4.5017 1.71922,4.5017 2.50669,2.97903 2.50669,2.97904 1.85007,7.19242 1.85006,7.19242 V 416.71095 426 h -0.70964 -0.70963 l -2.39369,-6.25 -2.39368,-6.25 -4.86621,-9.7617 -4.86621,-9.76169 -3.09388,-7.73831 -3.09387,-7.7383 -2.43947,-8 -2.43948,-8 -1.00104,-5 -1.00104,-5 -0.88772,-7.5 -0.88771,-7.5 1.49039,-7.5 1.49039,-7.5 3.37905,-7.21134 3.37905,-7.21134 3.81765,-2.59172 3.81765,-2.59172 3.40717,-2.19694 3.40718,-2.19694 2.91947,-3.62864 2.91948,-3.62864 3.37912,-9.33225 3.37912,-9.33226 -0.47625,-0.47625 -0.47625,-0.47626 -6.53702,3.43715 -6.53701,3.43715 -3.81952,3.22266 -3.81953,3.22266 -2.00196,4.27734 -2.00196,4.27734 -0.73895,5.5 -0.73895,5.5 -2.48101,4.25669 -2.48102,4.25669 -2.37996,6.74331 -2.37997,6.74331 -0.001,-12 -0.001,-12 1.01028,-7 1.01027,-7 0.94954,-3.53118 0.94954,-3.53119 4.3328,-6.46714 4.3328,-6.46714 1.93757,-0.35491 1.93758,-0.35492 1.68602,-1.49384 1.68602,-1.49385 0.90059,-2.65292 0.90059,-2.65291 -0.8652,-3.25 -0.8652,-3.25 -1.36782,0 -1.36782,0 -3.10359,3.5348 -3.10359,3.53479 -0.0256,3.21521 -0.0256,3.2152 -3.53981,5.5 -3.53981,5.5 0.6623,-4 0.6623,-4 1.90311,-9.4093 1.9031,-9.40929 0,-0.6125 0,-0.6125 4.34208,-4.72942 4.34207,-4.72942 1.15793,-3.8648 L 482,232.26796 v -3.45584 -3.45584 l -1.5936,-4.67698 -1.59361,-4.67697 -0.93407,-0.57729 -0.93408,-0.57729 -3.12349,3.32613 -3.1235,3.32612 -2.33906,5 -2.33905,5 -0.01,3.57186 -0.01,3.57186 1.63614,4.8018 1.63613,4.80179 -2.19874,11.12634 -2.19875,11.12635 -0.57984,2.5 -0.57984,2.5 -1.70158,-5.5 -1.70158,-5.5 0.84403,-1.68426 L 462,261.13148 v -3.41652 -3.41651 l -1.06988,-3.06905 -1.06987,-3.06905 -1.55687,-0.59743 -1.55688,-0.59743 -1.34679,1.11774 -1.34679,1.11774 -0.62144,3.31257 -0.62144,3.31258 0.66408,2.09234 0.66408,2.09233 2.35178,2.79494 2.35178,2.79493 1.6632,6.41848 1.66319,6.41848 -0.003,5.03119 -0.003,5.03119 -1.06099,7 -1.06098,7 -0.0198,6.75 L 460,316 l -0.75,-0.002 -0.75,-0.002 -2.98464,-8.74834 -2.98465,-8.74834 -0.0555,-9 -0.0555,-9 -2.17599,-4.14373 -2.17599,-4.14372 -6.00071,-6.30613 -6.00071,-6.30613 -0.53988,0.53989 -0.53988,0.53988 -0.0417,7.90997 -0.0417,7.90997 0.98877,3.28548 0.98876,3.28549 2.07404,3.35586 2.07403,3.35585 4.41707,3.61946 4.41708,3.61947 3.08585,8.00188 3.08586,8.00189 1.42971,6.23731 1.42972,6.23731 1.10285,11 1.10285,11 2.01802,10.48672 2.01802,10.48672 1.77688,5.26328 1.77687,5.26328 -0.60797,0 h -0.60796 l -4.48683,-5.73658 -4.48683,-5.73657 -9.23146,-12.51343 -9.23145,-12.51342 -3.14098,-5.86968 -3.14097,-5.86968 1.12243,-3.74634 1.12243,-3.74634 0,-3.22969 v -3.22969 l -1.61649,-2.73649 -1.61648,-2.73649 -1.98816,-1.24162 -1.98816,-1.24163 0.7226,1.16918 0.72259,1.16918 -1.30597,2.44022 -1.30597,2.44023 1.101,3.21442 1.101,3.21442 0.71123,2.5 0.71123,2.5 -2.70622,-2.5 -2.70623,-2.5 -3.60667,-4.72798 -3.60668,-4.72797 -0.45201,0.45201 -0.45202,0.45201 5.45022,7.27597 5.45021,7.27596 0.74951,1.25 0.7495,1.25 -1.09632,0 h -1.09632 l -4.3735,-4.5 -4.3735,-4.5 h -0.99137 l -0.99137,0 -1.09782,-3.14922 L 415,315.70155 V 312.35078 309 h 1.77216 l 1.77215,0 3.9252,3.23548 3.92519,3.23547 -0.7146,-1.86222 -0.71461,-1.86223 1.26726,-1.62325 L 427.5,308.5 l -1.69105,1.32352 -1.69105,1.32352 -2.92279,-2.16091 -2.9228,-2.16092 -2.38615,0.3374 L 413.5,307.5 l -0.30475,4.19378 -0.30475,4.19379 1.56481,3.02602 1.56482,3.02602 -0.12849,0.78019 -0.12848,0.7802 0.11842,1.20953 0.11842,1.20953 2.70192,2.50537 2.70192,2.50536 2.96477,0.65117 2.96476,0.65117 2.87019,1.74547 2.87019,1.74546 10.33446,14.38847 10.33447,14.38847 -0.27686,0.32219 -0.27686,0.32218 -4.12691,-2.6052 -4.12692,-2.60521 -3.5642,-3.94514 -3.5642,-3.94515 -3.37709,-2.08715 -3.37708,-2.08716 -3.27628,0.31532 L 424.5,348.5 l -0.29424,2.05683 -0.29423,2.05683 3.10364,3.94317 3.10365,3.94317 2.69059,1.2049 2.69059,1.20489 4.78984,0.0451 4.78984,0.0451 3.71016,1.90055 3.71016,1.90055 3.871,3.08633 3.871,3.08634 5.0377,6.26311 5.0377,6.26312 7.15849,14.60029 7.15848,14.6003 2.59113,7.3997 2.59113,7.39971 1.68439,8 1.68439,8 0.54971,11.875 0.54971,11.87501 -1.22853,8.62499 -1.22854,8.625 -1.08176,4 -1.08177,4 -1.34773,-7 -1.34773,-7 -0.93137,-11.5 -0.93138,-11.5 -1.06034,-3.6063 -1.06033,-3.6063 -3.81466,-5.90202 -3.81466,-5.90202 -4.56594,-4.0191 -4.56594,-4.0191 -9.22718,-4.97258 -9.22718,-4.97258 -4.26722,-3.7314 -4.26721,-3.7314 -0.40186,-6.31114 -0.40187,-6.31115 -2.28391,-3.20745 L 433.86381,394 h -1.40052 l -1.40052,0 0.63855,1.66404 0.63856,1.66405 -1.16994,-0.72306 L 430,395.88197 v -1.95687 -1.95687 l -2.75,0.15184 -2.75,0.15185 -2.88869,-1.16394 -2.88869,-1.16394 -0.54107,0.54107 -0.54106,0.54107 1.71717,7.28387 1.71718,7.28388 1.85563,3.05134 1.85564,3.05135 6.19819,1.90169 6.1982,1.90169 2.997,3 2.997,3 1.77343,3.5 1.77342,3.5 3.22713,9.76903 3.22713,9.76904 3.95153,5.91745 3.95152,5.91746 6.0991,4.81351 6.0991,4.81351 3.67249,3.19645 3.6725,3.19644 2.88965,5.30356 2.88966,5.30355 0.41414,8.61198 0.41414,8.61198 -2.23898,9.38802 -2.23899,9.38802 -1.16973,7.95026 -1.16972,7.95025 -2.32646,-6.45025 -2.32645,-6.45026 -4.40373,-9.29478 -4.40372,-9.29478 -1.4799,-7.20522 -1.47989,-7.20522 -4.14613,-8.5 -4.14613,-8.5 -7.10081,-7.00614 -7.1008,-7.00613 -7,-3.64498 -7,-3.64498 -9,-3.00461 -9,-3.00461 -6.90365,-2.60729 -6.90365,-2.6073 -0.38002,0.38002 -0.38002,0.38002 4.38385,5.383 4.38384,5.383 5.32026,9.5 5.32025,9.5 3.72896,5.5 3.72896,5.5 3.35061,3.10503 3.35061,3.10503 4.59295,3.08496 4.59295,3.08496 10.90705,4.77401 10.90705,4.77402 4.13957,3.81156 4.13956,3.81156 3.48661,6.72444 3.4866,6.72443 2.08658,6.5 2.08657,6.5 2.14364,10.94824 2.14363,10.94824 2.42703,7.43502 2.42704,7.43501 -0.31367,0.31366 -0.31366,0.31367 -4.46975,-5.66898 -4.46975,-5.66898 -1.84264,-2.76915 -1.84263,-2.76915 -1.48961,-5.70434 -1.48961,-5.70434 -2.4159,-4.76753 -2.41589,-4.76754 -3.25186,-3.70713 -3.25186,-3.70713 -5.43195,-3.47691 -5.43195,-3.4769 -4.31805,-3.98024 L 441,517.74528 v 1.43088 1.43087 l 3.35823,9.97199 3.35823,9.97199 1.74874,3.3817 1.74875,3.3817 4.58397,4.90064 4.58397,4.90063 6.22452,3.48095 6.22452,3.48095 6.45469,6.84232 6.45469,6.84231 2.99532,4.36889 2.99532,4.3689 2.7562,5.45687 2.7562,5.45688 4.87833,7.36653 4.87832,7.36653 v 0.47749 0.47748 l -3.25,-2.40938 -3.25,-2.40938 -5.2719,-2.81236 -5.27191,-2.81236 -9.86324,-10.57915 -9.86325,-10.57915 -5.60195,-3.36425 -5.60196,-3.36424 -11.67855,-4.34919 -11.67855,-4.3492 -6.9202,-4.60162 -6.9202,-4.60162 0.33586,1.31506 0.33585,1.31506 6.5,11 6.5,11 6.5,6.57826 6.5,6.57826 4.73601,2.75856 4.736,2.75856 5.264,1.42565 5.26399,1.42566 9.62223,0.95175 9.62223,0.95176 5.2416,2.06605 5.24159,2.06604 4.63618,3.17796 4.63617,3.17795 14,13.54177 14,13.54177 6.75,5.42461 6.75,5.4246 v 0.19111 0.19112 l -6.53477,-1.81204 -6.53477,-1.81204 -6.71523,-4.4571 -6.71523,-4.45711 -5.32048,-1.73473 -5.32049,-1.73474 -9.17951,0.84189 -9.17952,0.84188 -5,0.1398 -5,0.13979 -1,0.17889 -1,0.17888 5.5,2.76951 5.5,2.76951 5,3.18099 5,3.181 6.5,1.67057 6.5,1.67057 8.0519,-1.14348 L 531.6038,653 h 3.95128 3.95128 l 6.49682,1.89885 6.49682,1.89886 17.5,8.92083 17.5,8.92084 9.5,3.15419 9.5,3.1542 1.25,0.0261 L 609,681 Z m -100.25283,-28.26872 -3.75407,-0.95172 -4.74593,-2.43501 -4.74592,-2.43501 -2,-1.54797 -2,-1.54796 0.6849,-0.0318 0.6849,-0.0318 2.53203,0.96268 2.53203,0.96267 11.78307,1.60228 11.78307,1.60227 5.94521,1.25315 5.94521,1.25315 -1.94521,0.75529 -1.94521,0.7553 -8.5,0.3931 -8.5,0.39311 z m 14.75408,-4.5719 -6,-1.33046 -8,-1.06167 -8,-1.06166 -5,-1.19328 -5,-1.19328 5,-0.69691 5,-0.69691 7.09028,-0.0876 7.09028,-0.0876 6.06118,3.02881 6.06119,3.02881 1.22098,1.47119 1.22098,1.47119 -0.37245,-0.13008 -0.37244,-0.13008 z m -47.5,-45.3974 -7.5,-0.68618 -4.48325,-1.26425 -4.48326,-1.26426 -4.82634,-2.44569 -4.82634,-2.44569 -5.85619,-5.80189 -5.85619,-5.80189 -3.39751,-5.40107 -3.39751,-5.40106 -2.80702,-4.88338 -2.80703,-4.88338 1.37032,0.83055 1.37032,0.83054 4.38959,2.7672 4.38959,2.7672 8.11041,2.67586 8.11041,2.67585 6,2.98879 6,2.98878 3.65435,2.87927 3.65435,2.87927 6.34565,7.18953 6.34565,7.18953 -17,-8.80026 -17,-8.80026 -8,-5.45013 -8,-5.45014 4.37019,3.93337 4.37018,3.93337 7.62982,4.51058 7.62981,4.51058 14,7.08881 14,7.08881 -2,-0.13109 -2,-0.13108 z m -20.55,-9.94122 -0.95,-0.92923 -3,-0.5798 -3,-0.57979 3.5,1.43295 3.5,1.43295 0.45,0.0761 0.45,0.0761 z m 63.88856,-1.57076 0.61679,-11 2.089,-11.34999 2.08901,-11.34999 -0.46752,-0.46751 -0.46751,-0.46751 -2.09547,8.92555 -2.09547,8.92556 -1.05426,10.27348 -1.05426,10.27348 0.65592,3.11847 0.65592,3.11846 -1.0381,-1 -1.0381,-1 -2.67949,-8 -2.67949,-8 0.44952,-7.0547 0.44951,-7.05469 2.56797,-5.60919 2.56797,-5.60919 4.59475,-7.5691 L 526,542.03404 v -1.18369 -1.18368 l 0.40199,0.41666 0.40199,0.41667 2.21372,10.5 2.21372,10.5 -0.49311,8.05859 -0.49311,8.0586 -5.27489,11.4414 -5.27489,11.44141 -0.48682,0.5 -0.48682,0.5 z m 5.34455,-37.6875 -0.52522,-1.3125 -0.0789,1.91667 -0.0789,1.91666 0.60417,-0.60416 0.60416,-0.60417 z m -59.34576,5.13333 -5.16264,-3.01005 -3.54405,-3.92283 -3.54404,-3.92283 -2.16663,-4.24696 -2.16664,-4.24695 -1.87926,-5.46218 -1.87927,-5.46218 0.253,-0.25301 0.253,-0.253 9.99959,12.59541 9.99959,12.59541 0.8747,1.57167 0.8747,1.57167 -7.6247,-7.47497 L 452,540.55006 v 1 1 l 7.30352,7.25478 7.30353,7.25478 0.56102,-0.56102 0.56101,-0.56102 1.65851,2.53121 1.65852,2.53121 -0.27306,-0.0221 -0.27305,-0.0221 z M 460.5,543.83939 l -11,-13.82577 -1.48438,-2.1761 -1.48438,-2.17611 4.48438,2.88114 4.48438,2.88114 3.66885,2.80791 3.66885,2.80792 3.04351,4.59486 3.04352,4.59487 1.59682,5.49286 1.59681,5.49286 -0.30918,0.2251 -0.30918,0.22509 z m 50.97731,-33.27402 8.36925,-13.43463 12.85903,-12.81537 12.85904,-12.81537 -0.67869,11.54045 -0.6787,11.54046 -2.24777,4.78194 -2.24778,4.78193 -3.30444,2.63668 -3.30444,2.63668 -8.72533,3.3218 -8.72532,3.32181 -5.81477,3.96912 L 504.02262,524 h -0.45728 -0.45728 z M 456.5,503.50791 l -6,-3.02528 -6.48245,-2.8532 -6.48245,-2.85321 -4.01755,-2.7763 -4.01755,-2.77631 -4.32132,-4.3618 -4.32133,-4.36181 -4.30626,-7 -4.30627,-7 -4.12272,-7 -4.12271,-7 -2.61875,-3.23819 -2.61874,-3.23818 13.91303,4.86275 13.91302,4.86276 4.45602,2.26228 4.45603,2.26227 4.4982,3.08196 4.49821,3.08197 3.88614,4.03119 3.88614,4.03119 3.3466,5.17217 3.34659,5.17217 2.40261,7.32783 2.40261,7.32783 0.6355,2.75 0.6355,2.75 h -0.42027 -0.42028 l -2.28809,-3.75 -2.2881,-3.75 -2.22027,-5.30224 -2.22028,-5.30223 -3.32386,-5.48433 -3.32385,-5.48434 -2.97836,-2.71343 -2.97835,-2.71343 1.43809,2 1.4381,2 2.33863,2.90388 2.33863,2.90388 3.43508,6.82115 3.43508,6.82116 v 0.63313 0.63312 l -6.25,-6.74966 -6.25,-6.74967 -8.5,-7.15892 -8.5,-7.15892 -6.35665,-4.94957 L 414.7867,457.5 412.89335,456.12803 411,454.75606 v 0.5744 0.5744 l 11.75,9.76941 11.75,9.76941 8.88685,8.52816 8.88685,8.52816 5.46081,6.81901 5.4608,6.81901 -0.34765,0.19758 -0.34766,0.19758 z m -13,-13.08526 -11,-6.57432 -6.5251,-6.42417 L 419.44981,471 h -0.94075 -0.94074 l 5.46584,5.57082 5.46584,5.57082 4.73793,3.50549 4.73794,3.50549 6.76206,3.82474 6.76207,3.82475 1.5,0.0974 1.5,0.0974 z M 440,468.65499 v -0.34501 l -2.25,-1.90499 -2.25,-1.90499 1.90499,2.25 1.90499,2.25 H 439.65499 440 Z M 518.61744,490 l 0.61556,-4.5 1.35982,-7.37803 1.35981,-7.37804 3.93481,-8.1293 3.9348,-8.12929 7.38976,-8.49267 7.38977,-8.49267 2.39578,-3.43056 2.39578,-3.43057 -1.18139,0.73015 -1.1814,0.73014 3.52484,-6.93831 3.52484,-6.93831 1.30515,-6.36127 1.30516,-6.36127 0.82324,2.5 0.82325,2.5 -0.0603,11 -0.0603,11 -2.10164,8.80135 -2.10164,8.80135 -3.5533,7.69067 -3.55331,7.69066 -5.53749,7.22969 -5.53749,7.22968 -6.91576,6.13129 L 522,492.20597 v -0.75155 -0.75155 l 4.66899,-8.60144 4.66898,-8.60143 5.2088,-8.5 5.20879,-8.5 2.19198,-4.34691 2.19198,-4.3469 -0.40757,-0.40757 -0.40757,-0.40758 -9.40344,15.75448 -9.40345,15.75448 -4.2578,8 -4.2578,8 z m -38.25344,-16.2104 -1.864,-2.31572 -5.03902,-3.66723 -5.03901,-3.66723 -5.27932,-5.58211 -5.27932,-5.5821 -2.82093,-6.2376 -2.82093,-6.23761 -2.06804,-6.71709 -2.06803,-6.71708 -1.56838,-3.03292 L 444.94864,421 h 0.51112 0.51112 l 2.26456,3.37771 2.26456,3.3777 6.86527,7.8723 6.86528,7.87229 5.7577,8.52273 5.7577,8.52273 3.69121,7.32975 3.6912,7.32976 -0.45017,0.45018 -0.45018,0.45017 z m -4.20936,-7.5396 -1.98155,-2.75 -6.83655,-8.21801 -6.83654,-8.21802 -3.33971,-4.60894 -3.3397,-4.60895 -0.50378,0.50378 -0.50378,0.50377 5.84349,7.73064 5.84348,7.73064 1.91422,2.59254 1.91422,2.59255 4.54819,4.75 4.54819,4.75 h 0.35568 0.35569 z m 5.94319,1.60078 L 481,464.70155 v -2.33264 -2.33264 l -3.88184,-8.26813 -3.88183,-8.26814 -3.18501,-3.5 -3.18501,-3.5 3.16673,4.82535 3.16672,4.82534 3.40012,7.35912 3.40012,7.35911 v 1.619 1.619 l -6.93016,-10.30346 -6.93016,-10.30346 -8.1848,-9.3017 -8.1848,-9.30171 0.45445,-0.45445 0.45444,-0.45445 4.85225,2.57997 4.85224,2.57996 5.3245,3.5342 5.32449,3.53419 3.02626,3.642 3.02627,3.64199 3.0237,6.10561 3.02371,6.10561 0.57814,7.64439 0.57815,7.64439 h -0.54652 -0.54651 z m 23.62475,-50.10078 0.96747,-1.25 6.7492,-12.82244 6.7492,-12.82244 0.30337,0.32244 0.30336,0.32244 -0.94234,5.94689 -0.94233,5.94688 -2.57583,4.73265 -2.57583,4.73265 -3.82079,3.07046 L 506.11728,419 h -0.68109 -0.68108 z m -1.03841,-5.75 0.49402,-4.5 2.66091,-5.44282 2.6609,-5.44281 4.28568,-3.46613 4.28568,-3.46613 -0.9326,2.40895 -0.9326,2.40894 -5.5757,9.5 -5.5757,9.5 -0.9323,1.5 -0.93231,1.5 z M 426.10576,409.09879 423,406.19758 v -1.07735 -1.07735 l 2.25,1.07284 2.25,1.07285 2.32606,2.90571 2.32606,2.90572 h -1.47031 -1.4703 z M 429.93165,407.3997 426.5,403.82936 423.75,402.389 421,400.94864 v -2.21506 -2.21506 l 6.7037,6.7037 6.70371,6.70371 -0.52206,0.52205 -0.52206,0.52206 z m -2.85514,-6.50311 -7.4235,-6.88293 0.59813,-0.59814 0.59814,-0.59813 2.32536,0.78943 2.32536,0.78943 0.70942,-0.1846 0.70943,-0.1846 2.42252,3.23648 2.42252,3.23647 1.69179,3.34293 1.69179,3.34293 -0.32373,0.29683 -0.32374,0.29684 z M 434.263,402.63156 432.02599,398 h 0.872 0.87199 l 1.67681,2.55914 1.67681,2.55913 -0.3118,2.07243 -0.3118,2.07243 z M 485.02032,385.03984 483,381.07968 l 0.0153,-6.28984 0.0153,-6.28984 0.81641,-1.28675 0.81642,-1.28676 3.23012,6.36385 3.23013,6.36385 -0.31765,4.92291 -0.31764,4.9229 -1.44392,-6 -1.44391,-6 -0.34608,2.06864 -0.34608,2.06865 0.93949,4.18135 0.93949,4.18136 h -0.87338 -0.87338 z M 519,360 l 2.13619,-3 H 520.26809 519.4 l -1.38832,1.25 -1.38832,1.25 1.54039,-2.5 1.54038,-2.5 2.72372,-1.34089 2.72371,-1.34088 0.65928,0.65928 0.65928,0.65928 -2.48506,1.99429 -2.48506,1.99429 2.25,-0.63007 2.25,-0.63008 v 1.11285 1.11284 l -2.45455,2.45454 L 521.09091,363 h -2.11355 -2.11355 z m -85.5428,0.13697 -3.04279,-1.85556 -1.73026,-2.6407 L 426.95389,353 H 428.47695 430 v -1 -1 h -2 -2 v -1.01905 -1.01905 l 2.75,0.65738 2.75,0.65738 2,0.98664 2,0.98663 2.34182,2.12503 2.34182,2.12504 0.98137,1.82101 0.98136,1.821 -2.54114,-1.66502 -2.54114,-1.66502 -1.28205,0.4629 -1.28204,0.46291 2.75,1.29162 2.75,1.29163 V 361.16052 362 l -1.75,-0.004 -1.75,-0.004 z M 492.60699,346.41821 492,344.83643 v -1.54066 -1.54066 L 493.5,343 495,344.24489 V 346.12244 348 h -0.89301 -0.89301 z M 497,346.42857 v -1.57143 l -1.5,-1.5 -1.5,-1.5 V 339.92857 338 h 0.92676 0.92676 l 1.57324,3.15364 L 499,344.30728 V 346.15364 348 h -1 -1 z m 18.97784,-10.38716 1.03291,-1.93002 1.05631,-0.65284 1.05631,-0.65283 0.91356,-2.40286 L 520.9505,328 H 522.47525 524 v 2.34501 2.34501 l -1.75183,1.58539 -1.75183,1.58538 -2.77571,1.05533 -2.77571,1.05532 z m -6.47621,-3.32678 -0.73748,-3.78537 0.63331,-3.16655 0.63331,-3.16656 2.15893,-2.29808 L 514.34863,318 H 515.17431 516 v 1.60699 1.60699 l 1.63438,-0.62717 1.63437,-0.62717 -0.5121,3.77018 -0.5121,3.77018 -2.24624,3.7927 -2.24625,3.7927 -0.46854,-0.46855 -0.46855,-0.46855 1.6517,-5.68163 1.65169,-5.68164 -0.54605,-0.54606 -0.54606,-0.54605 -1.51312,3.62142 -1.51313,3.62142 -0.0703,1.78212 -0.0703,1.78212 -0.81016,2 -0.81016,2 z m -89.65548,-5.56078 -3.34477,-2.98856 0.56191,-0.56192 0.56192,-0.56191 3.43739,2.88172 3.4374,2.88173 -0.65453,0.66875 -0.65454,0.66874 z m 12.21724,-0.77812 -0.0634,-3.12428 -1.44649,-4.09978 -1.44648,-4.09978 1.04244,-0.64427 1.04245,-0.64427 1.56987,1.56987 1.56987,1.56987 -0.15396,3.92926 -0.15396,3.92926 -0.94849,2.3692 -0.94848,2.36919 z m 44.54735,-26.009 1.80981,-2.86673 4.28972,-5.67404 L 487,286.15191 v -0.6984 -0.6984 l -1.59037,1.31989 -1.59036,1.31988 -4.53026,6.3486 -4.53027,6.34859 -0.32315,-0.32315 -0.32315,-0.32315 0.99289,-4.47288 0.9929,-4.47289 2.42643,-3.69161 2.42643,-3.69161 7.10183,-4.14769 7.10182,-4.14768 0.43565,0.43565 0.43565,0.43564 -2.57775,6.84844 -2.57774,6.84844 -2.71224,4.05521 -2.71223,4.05521 -5.32258,2.86673 -5.32258,2.86673 z m -33.75516,-12.09005 -4.58497,-4.90169 -1.1353,-6.51941 L 436,270.33617 v -3.91378 -3.91379 l 6.43981,6.6653 6.4398,6.6653 1.11478,4.13998 1.11478,4.13998 -0.33526,4.19042 -0.33527,4.19042 -1.27333,-3 -1.27334,-3 -3.12876,-7 -3.12876,-7 -0.86608,-0.99885 -0.86608,-0.99886 2.47044,6.49886 2.47045,6.49885 1.63072,3.84307 1.63072,3.84308 -0.33204,0.99611 -0.33204,0.99612 z m 34.68416,-24.26884 0.74875,-2.49216 -1.64424,1.36461 L 475,264.24489 V 262.12244 260 l 2,-2 2,-2 h 1 1 l 0.11848,1.75 0.11849,1.75 -0.1944,1.5 -0.19439,1.5 -2.0286,2 -2.02859,2 z M 455.60699,259.41821 455,257.83643 v -2.72709 -2.72708 l 1.36836,-1.87135 1.36837,-1.87135 1.13163,2.11448 1.13164,2.11448 -0.116,4.31574 -0.116,4.31574 -0.45733,-1.75 -0.45732,-1.75 h -1.03366 -1.03367 l 0.57561,1.5 0.5756,1.5 h -0.86163 -0.86162 z M 468.625,240.875 468,237.75 v -3.3859 -3.3859 l 2.06487,-4.39282 2.06487,-4.39282 2.06007,-1.84628 2.06008,-1.84628 -0.68521,3.5 -0.6852,3.5 -2.06301,9.25 -2.06302,9.25 H 470.00173 469.25 Z m 4.76588,0.125 0.7282,-3.5 1.51662,-8.49282 1.51661,-8.49283 0.42385,-0.42384 0.42384,-0.42384 0.61066,0.61065 0.61065,0.61066 0.51041,6.35855 0.5104,6.35855 -2.04797,4.01436 -2.04797,4.01436 -1.74175,1.4331 -1.74174,1.4331 z m 173.19252,403.13494 -0.53464,-0.86506 -3.90678,-0.52401 -3.90678,-0.52401 -2.77767,-1.36093 -2.77766,-1.36093 -1.90632,-2.57739 -1.90631,-2.5774 -1.04367,-3.9226 -1.04367,-3.92261 -0.33028,-41 -0.33029,-41 -10.42748,-5.19777 -10.42749,-5.19777 -2.38218,-0.59537 -2.38218,-0.59537 -0.0888,45.29314 -0.0888,45.29314 -1.23048,5.7424 -1.23049,5.74239 -2.9832,2.9832 -2.9832,2.98321 -4.19748,1.0608 -4.19748,1.0608 -2,0.89592 -2,0.89592 33.80902,0.0677 L 647.11803,645 Z M 764.93595,554.84151 755.76623,540.5 l -19.24126,-28.61141 -19.24125,-28.6114 -5.69599,-7.70212 -5.69598,-7.70211 -6.47765,-4.68648 -6.47764,-4.68648 5.78177,-1.28271 5.78177,-1.2827 7.7684,-2.48804 7.76841,-2.48805 5.23159,-2.32196 5.2316,-2.32196 5.73818,-3.68046 5.73818,-3.68045 6.62313,-6.19562 6.62313,-6.19561 3.97509,-5.85359 3.97509,-5.85358 2.89071,-6.17763 2.89071,-6.17764 2.15073,-8 2.15073,-8 0.0762,-13 0.0762,-13 -2.25555,-8 -2.25554,-8 -4.09504,-8.5 -4.09503,-8.5 -9.1333,-9 -9.13329,-9 -6.7499,-3.69326 -6.7499,-3.69326 -6.2203,-2.48671 -6.22029,-2.48672 -8,-2.06898 -8,-2.06898 -7.5,-0.97017 -7.5,-0.97017 -47.5,-0.009 -47.5,-0.009 2.44886,1.88207 2.44886,1.88207 43.05114,0.43441 43.05114,0.43441 9.79477,2.61504 9.79477,2.61504 7.05019,3.79625 7.05018,3.79624 5.9562,5.38019 5.95619,5.38019 3.85475,5.67638 3.85475,5.67637 2.51262,5.96972 2.51262,5.96972 2.23504,8.97371 2.23503,8.97372 0.0316,13.5 0.0316,13.5 -2.24132,8.71576 -2.24133,8.71576 -2.49442,6.13882 -2.49443,6.13882 -3.98194,6.30496 -3.98195,6.30497 -6.88611,6.496 -6.8861,6.49601 -6.33138,3.4813 -6.33138,3.48129 -5,1.60073 -5,1.60073 -5.5,1.13429 -5.5,1.13428 -20.5,0.62814 -20.5,0.62814 v 2 2 l 14.17433,0.277 14.17433,0.27699 4.82567,5.30102 4.82567,5.30102 17.10444,24.92198 17.10445,24.92199 14.32467,21.34285 14.32468,21.34285 2.54758,0.96859 2.54758,0.96859 7.0233,1.49296 7.0233,1.49296 7.5,0.70298 7.5,0.70298 0.30283,-0.66588 0.30283,-0.66587 z M 626.09381,407.96685 626.28798,302.5 623.39399,301.86831 620.5,301.23663 609.63871,301.11831 598.77742,301 l 0.76779,3.75 0.76779,3.75 0.25448,61 0.25448,61 0.12582,37.5 0.12583,37.5 12.21319,4.05267 12.2132,4.05267 0.19981,-0.0858 0.19982,-0.0858 z M 293.06574,488.96482 295,487.92963 V 485.16482 482.4 l -1.2,-1.2 -1.2,-1.2 h -2.1 -2.1 l -1.2,1.2 -1.2,1.2 v 2.2433 2.24329 l 2.22251,1.55671 2.2225,1.5567 h 0.34324 0.34323 z m 673.05333,-0.86015 2.34063,-1.89533 -0.99997,-2.85467 -0.99998,-2.85467 -2.31234,-0.33036 -2.31234,-0.33036 -1.91754,1.73535 L 958,483.30998 V 484.65499 486 l 2,2 2,2 h 0.88922 0.88921 z m -674.17779,-25.42676 1.09639,-3.32209 3.23117,-3.12723 3.23116,-3.12723 3.79917,-1.58464 3.79918,-1.58465 -5.29918,-2.75358 -5.29917,-2.75359 -3,-5.17902 -3,-5.17903 -0.625,-0.0334 -0.625,-0.0334 -0.58203,2.91013 -0.58202,2.91012 -3.68119,3.57513 -3.68119,3.57512 -3.36178,1.21564 -3.36179,1.21564 0.041,0.54911 0.041,0.54911 5.01016,2.3509 5.01017,2.35091 2.44884,3.87922 L 289,462.96026 V 464.48013 466 h 0.92245 0.92245 z M 965,463.59102 v -1.29094 l 2.91014,-4.01733 2.91014,-4.01734 4.66611,-2.25882 4.66611,-2.25882 -3.84844,-1.723 -3.84844,-1.723 -3.0751,-3.07509 -3.07509,-3.0751 -1.27471,-3.07741 -1.2747,-3.07741 -3.12801,5.20818 -3.12801,5.20818 -5.22064,2.71845 -5.22064,2.71844 4.4473,2.15291 4.4473,2.1529 2.65782,3.15863 2.65782,3.15864 0.96293,2.76227 0.96293,2.76227 0.90259,-0.55783 L 965,464.88197 Z M 292.77749,418.4433 295,416.88659 V 414.6433 412.4 l -1.2,-1.2 -1.2,-1.2 h -2.1 -2.1 l -1.2,1.2 -1.2,1.2 v 2.22857 2.22857 l 1.57143,1.57143 1.57143,1.57143 h 0.70606 0.70607 z M 967.5,414.48701 v -2.76904 l -1.59522,-1.00624 -1.59523,-1.00624 -2.54447,0.63862 -2.54448,0.63863 -0.63297,1.64951 -0.63298,1.6495 0.61062,1.92388 0.61061,1.92388 2.16206,0.84012 2.16206,0.84012 2,-1.27685 2,-1.27684 z m -670.11605,-49.7551 2.58619,-10.76808 4.93246,-14.73192 4.93247,-14.73191 5.14724,-12 5.14725,-12 6.07887,-11.5 6.07888,-11.5 6.54752,-10.5 6.54752,-10.5 6.55882,-9.14942 6.55883,-9.14943 8.17221,-9.87704 8.1722,-9.87705 13.3278,-12.98715 13.32779,-12.98715 11,-8.57064 11,-8.57064 8.05988,-5.61576 8.05987,-5.61576 11.94013,-7.10793 11.94012,-7.10793 13.07947,-6.39159 13.07948,-6.39158 10.92052,-4.44541 10.92053,-4.44541 11,-3.52974 11,-3.52974 14.1654,-3.56682 14.1654,-3.56682 15.3346,-2.49266 15.3346,-2.49266 13.5,-1.01341 13.5,-1.0134 12.69553,-0.002 12.69553,-0.002 12.80447,1.03822 12.80447,1.03823 15,2.46844 15,2.46844 15.41431,4.02535 15.41431,4.02534 13.58569,5.06702 13.58569,5.06702 12.7212,5.77917 12.72119,5.77916 10.00081,5.6625 10.0008,5.66251 12.66018,8.50805 12.66017,8.50806 9.61783,7.6722 9.61782,7.6722 16.07444,16.02905 16.07445,16.02904 8.74783,11 8.74784,11 8.75567,13 8.75567,13 6.74843,12.1811 6.74843,12.18111 6.29832,14.31889 6.29833,14.3189 4.0097,11.5 4.0097,11.5 4.33879,17 4.33878,17 0.3465,-1.73114 0.3465,-1.73114 -1.64712,-8.26886 -1.64712,-8.26886 -2.5454,-9.5 -2.54541,-9.5 -3.33292,-9.58136 -3.33293,-9.58135 -5.0402,-11.91865 -5.04021,-11.91864 -7.80445,-14.5 -7.80445,-14.5 -8.6253,-13 -8.6253,-13 -8.76834,-11 -8.76834,-11 L 866.55594,201.44717 849.5,184.39435 839,176.06482 l -10.5,-8.32952 -10,-6.70105 -10,-6.70105 -8.85958,-5.2132 -8.85957,-5.2132 -10.64043,-5.33495 L 769.5,133.23691 758,128.494 l -11.5,-4.74292 -10,-3.2838 -10,-3.28379 -11.5,-3.02267 -11.5,-3.02268 -10.5,-2.00482 -10.5,-2.00483 -14,-1.70372 -14,-1.70372 -23.5,0 -23.5,0 -14,1.68549 -14,1.68549 -15,2.98686 -15,2.98686 -7.5,2.03047 -7.5,2.03048 -12.5,4.05215 -12.5,4.05215 -10,3.9719 -10,3.9719 -11,5.23078 -11,5.23078 -11,6.32319 -11,6.32319 -12.34326,8.39045 -12.34325,8.39044 -7.15675,5.63777 -7.15674,5.63778 -9,8.01215 -9,8.01214 -9.37017,9.56827 -9.37017,9.56826 -8.44808,10.5 -8.44807,10.5 -7.77185,11.5 -7.77185,11.5 -4.73458,7.85599 -4.73458,7.85599 -6.37738,12.76649 -6.37738,12.76648 -3.68785,8.87752 -3.68785,8.87753 -3.91708,11.5 -3.91709,11.5 -3.43557,15 -3.43558,15 0.023,1.5 0.023,1.5 0.86847,-1.5 0.86848,-1.5 z m 146.82747,-24.74481 -0.4422,-3.01289 1.68978,0.64843 1.68978,0.64843 -0.59344,2.36447 L 445.9619,343 h 1 1 l 0.61413,-2.44689 0.61413,-2.4469 -1.16804,-3.53917 -1.16803,-3.53918 -0.97085,-0.60002 -0.97085,-0.60002 -1.45619,1.20853 -1.4562,1.20854 v 3.4433 3.44329 l 1.03518,1.93426 1.03519,1.93426 h 0.29162 0.29162 z"
       id="path1" />
  </g>
</svg>
